<svg width="80" height="80" viewBox="0 0 80 80" fill="none" xmlns="http://www.w3.org/2000/svg">
<path d="M19.5 70C19.5 71.3807 20.6193 72.5 22 72.5C23.3807 72.5 24.5 71.3807 24.5 70H19.5ZM23.7678 8.23223C22.7915 7.25592 21.2085 7.25592 20.2322 8.23223L4.32233 24.1421C3.34602 25.1184 3.34602 26.7014 4.32233 27.6777C5.29864 28.654 6.88155 28.654 7.85786 27.6777L22 13.5355L36.1421 27.6777C37.1184 28.654 38.7014 28.654 39.6777 27.6777C40.654 26.7014 40.654 25.1184 39.6777 24.1421L23.7678 8.23223ZM24.5 70L24.5 10H19.5L19.5 70H24.5Z" fill="black"/>
<path d="M59.5 10C59.5 8.61929 58.3807 7.5 57 7.5C55.6193 7.5 54.5 8.61929 54.5 10H59.5ZM55.2322 71.7678C56.2085 72.7441 57.7915 72.7441 58.7678 71.7678L74.6777 55.8579C75.654 54.8816 75.654 53.2986 74.6777 52.3223C73.7014 51.346 72.1184 51.346 71.1421 52.3223L57 66.4645L42.8579 52.3223C41.8816 51.346 40.2986 51.346 39.3223 52.3223C38.346 53.2986 38.346 54.8816 39.3223 55.8579L55.2322 71.7678ZM54.5 10L54.5 70H59.5L59.5 10H54.5Z" fill="black"/>
</svg>
