<svg width="40" height="80" viewBox="0 0 40 80" fill="none" xmlns="http://www.w3.org/2000/svg">
<path d="M17.5 10C17.5 8.61929 18.6193 7.5 20 7.5C21.3807 7.5 22.5 8.61929 22.5 10H17.5ZM21.7678 71.7678C20.7915 72.7441 19.2085 72.7441 18.2322 71.7678L2.32233 55.8579C1.34602 54.8816 1.34602 53.2986 2.32233 52.3223C3.29864 51.346 4.88155 51.346 5.85786 52.3223L20 66.4645L34.1421 52.3223C35.1184 51.346 36.7014 51.346 37.6777 52.3223C38.654 53.2986 38.654 54.8816 37.6777 55.8579L21.7678 71.7678ZM22.5 10L22.5 70H17.5L17.5 10H22.5Z" fill="black"/>
</svg>
