<?xml version="1.0" encoding="UTF-8" standalone="no"?>
<!-- Generator: Adobe Illustrator 16.0.0, SVG Export Plug-In . SVG Version: 6.00 Build 0)  -->

<svg
   xmlns:dc="http://purl.org/dc/elements/1.1/"
   xmlns:cc="http://creativecommons.org/ns#"
   xmlns:rdf="http://www.w3.org/1999/02/22-rdf-syntax-ns#"
   xmlns:svg="http://www.w3.org/2000/svg"
   xmlns="http://www.w3.org/2000/svg"
   xmlns:sodipodi="http://sodipodi.sourceforge.net/DTD/sodipodi-0.dtd"
   xmlns:inkscape="http://www.inkscape.org/namespaces/inkscape"
   version="1.1"
   id="Layer_1"
   x="0px"
   y="0px"
   width="316"
   height="316"
   viewBox="0 0 384 384"
   enable-background="new 0 0 1024 1024"
   xml:space="preserve"
   inkscape:version="0.48.3.1 r9886"
   sodipodi:docname="PPCRV_logo.svg"><metadata
   id="metadata171"><rdf:RDF><cc:Work
       rdf:about=""><dc:format>image/svg+xml</dc:format><dc:type
         rdf:resource="http://purl.org/dc/dcmitype/StillImage" /></cc:Work></rdf:RDF></metadata><defs
   id="defs169" /><sodipodi:namedview
   pagecolor="#ffffff"
   bordercolor="#000000"
   borderopacity="1"
   objecttolerance="10"
   gridtolerance="10"
   guidetolerance="10"
   inkscape:pageopacity="0"
   inkscape:pageshadow="2"
   inkscape:window-width="1440"
   inkscape:window-height="838"
   id="namedview167"
   showgrid="false"
   inkscape:showpageshadow="false"
   fit-margin-top="0"
   fit-margin-left="0"
   fit-margin-right="0"
   fit-margin-bottom="0"
   inkscape:zoom="1.3037281"
   inkscape:cx="254.41638"
   inkscape:cy="167.53773"
   inkscape:window-x="-6"
   inkscape:window-y="-6"
   inkscape:window-maximized="1"
   inkscape:current-layer="Layer_1" />
<path
   d="M 4.9032798,191.47182 C 4.9032798,88.454701 88.407757,4.950223 191.42487,4.950223 c 103.01595,0 186.5344,83.504478 186.5344,186.521597 0,103.01906 -83.51845,186.52819 -186.5344,186.52819 -103.017113,0 -186.5215902,-83.50913 -186.5215902,-186.52819"
   id="path3"
   inkscape:connector-curvature="0"
   style="fill:#ffffff" />
<path
   clip-rule="evenodd"
   d="m 11.368428,191.47182 c 0,-99.445196 80.615905,-180.062653 180.058782,-180.062653 99.44518,0 180.05798,80.617457 180.05798,180.062653 0,99.44714 -80.6124,180.05721 -180.05798,180.05721 C 91.984333,371.52865 11.368428,290.91896 11.368428,191.47182 m 4.291735,0 c 0,-97.07582 78.693929,-175.763542 175.767047,-175.763542 97.07736,0 175.76004,78.687722 175.76004,175.763542 0,97.0766 -78.68306,175.76548 -175.76004,175.76548 -97.073118,0 -175.767047,-78.68888 -175.767047,-175.76548"
   id="path5"
   inkscape:connector-curvature="0"
   style="fill-rule:evenodd" />
<path
   d="m 191.61113,326.69479 -0.0245,-0.11292 c -0.097,-0.51261 -0.32401,-1.77645 -0.70818,-3.81289 -0.67596,-3.59016 -1.08535,-3.64914 -4.64523,-7.60018 -6.36349,-7.06894 -3.23122,-11.95748 -1.681,-15.86117 1.5545,-3.90058 3.07135,-20.53087 -10.78947,-17.17159 -13.85656,3.36509 -16.73195,25.99798 -19.04506,33.26094 -2.30535,7.25364 -12.59114,4.15397 -12.59114,4.15397 C 111.53616,307.10842 59.050514,271.6015 52.930717,209.92122 40.186292,81.536313 159.356,55.583364 159.356,55.583364 118.36763,69.091844 79.149871,115.86864 88.401551,174.06392 c 9.253223,58.20226 55.986159,72.71499 73.782109,77.16582 7.62849,1.91731 13.56048,-1.34185 17.43273,-13.95317 5.62543,-18.34425 -5.6487,-40.1607 -5.6487,-40.1607 5.25795,-6.81438 17.11493,-6.71543 17.64344,-6.64946 0.5289,-0.066 12.38937,0.26076 17.63763,6.64946 0,0 -11.26871,21.81645 -5.64134,40.1607 3.87148,12.61132 9.89582,16.22399 17.43041,13.95317 21.70429,-6.53733 64.52385,-18.96356 73.77901,-77.16582 9.25166,-58.19567 -29.96143,-104.972076 -70.95097,-118.480943 0,0 119.16894,25.952953 106.42644,154.337863 -6.12405,61.68028 -58.60543,97.18719 -89.19509,109.62973 0,0 -10.28426,3.09967 -12.59581,-4.15398 -2.31157,-7.26297 -5.18616,-29.89585 -19.04894,-33.26094 -13.85577,-3.35927 -12.32883,13.271 -10.78442,17.17159 1.551,3.9037 4.68869,8.79223 -1.67633,15.86118 -3.56455,3.95103 -3.97084,4.01001 -4.64952,7.60017 -0.37794,2.03644 -0.61465,3.30029 -0.70507,3.81289 l -0.026,0.11331 z"
   id="path7"
   inkscape:connector-curvature="0"
   style="fill:#00a1e4" />
<path
   clip-rule="evenodd"
   d="m 102.2612,330.7797 3.30107,-4.89824 -1.908,-1.2887 c -1.37482,-0.92897 -2.35502,-1.45437 -2.93669,-1.58514 -0.58323,-0.13233 -1.13424,-0.0912 -1.65926,0.11564 -0.5223,0.20644 -0.95846,0.55955 -1.304205,1.07564 -0.422197,0.62513 -0.58362,1.26968 -0.492428,1.92701 0.08846,0.65657 0.39075,1.22583 0.880463,1.70429 0.36398,0.36591 1.17849,0.96622 2.43146,1.81758 l 1.68759,1.13192 z m 13.15382,-11.98582 -11.64666,17.25928 -5.5909,-3.77834 c -2.117534,-1.42644 -3.438049,-2.44272 -3.966166,-3.05234 -0.813722,-0.92586 -1.262292,-2.04536 -1.338737,-3.36586 -0.0865,-1.31352 0.332929,-2.65847 1.261516,-4.03757 0.715156,-1.05781 1.505992,-1.81759 2.377525,-2.28401 0.870766,-0.45944 1.745032,-0.69731 2.622002,-0.70934 0.86533,-0.0128 1.64955,0.12495 2.34765,0.40046 0.94758,0.40008 2.20328,1.12299 3.77952,2.19204 l 2.27702,1.53626 4.39184,-6.51288 3.48539,2.3523 z"
   id="path9"
   inkscape:connector-curvature="0"
   style="fill-rule:evenodd" />
<path
   clip-rule="evenodd"
   d="m 86.745781,307.33076 -3.03759,7.66614 7.25869,-3.86023 -4.2211,-3.80591 z m -0.238261,-11.2947 3.39536,3.05892 -1.809044,4.72906 6.180325,5.56761 4.439959,-2.36472 3.31504,2.98675 -19.954236,10.04405 -3.302999,-2.97472 7.735595,-21.04695 z"
   id="path11"
   inkscape:connector-curvature="0"
   style="fill-rule:evenodd" />
<path
   clip-rule="evenodd"
   d="m 73.823238,300.02744 -2.037997,-2.3558 c -1.326317,-1.51684 -2.216092,-2.41477 -2.674372,-2.67708 -0.460989,-0.26892 -0.940997,-0.37175 -1.4342,-0.30927 -0.509502,0.0531 -0.989903,0.28753 -1.463695,0.6973 -0.525408,0.46565 -0.827301,0.97903 -0.903747,1.54247 -0.07953,0.56305 0.05115,1.13502 0.412487,1.72601 0.192862,0.28754 0.839722,1.07564 1.96116,2.36122 l 2.148964,2.48152 3.9914,-3.46637 z m 11.824374,-4.71081 -15.714096,13.65593 -5.7985,-6.67546 c -1.464078,-1.68604 -2.383347,-3.02439 -2.752761,-4.02825 -0.386096,-1.01046 -0.419085,-2.05469 -0.092,-3.14352 0.323622,-1.07915 0.947988,-2.02364 1.88006,-2.83076 1.178483,-1.02909 2.453195,-1.52656 3.831519,-1.50095 1.363578,0.0248 2.750817,0.64415 4.147384,1.84514 -0.195188,-1.03219 -0.249905,-1.97707 -0.152115,-2.84279 0.08463,-0.86068 0.414814,-2.20563 0.97166,-4.02554 l 1.402379,-4.57926 3.29485,3.78767 -1.42722,5.27075 c -0.51338,1.87657 -0.795087,3.09657 -0.852524,3.66854 -0.06136,0.58516 0,1.08884 0.179665,1.52927 0.16919,0.43809 0.571976,1.02249 1.204099,1.752 l 0.556826,0.64415 6.563721,-5.70536 2.757022,3.17844 z"
   id="path13"
   inkscape:connector-curvature="0"
   style="fill-rule:evenodd" />
<polygon
   clip-rule="evenodd"
   points="159.582,768.24 153.218,759.479 196.615,727.939 202.979,736.716 "
   id="polygon15"
   transform="matrix(0.38804097,0,0,0.38804097,-5.9781695,-5.9172509)"
   style="fill-rule:evenodd" />
<path
   clip-rule="evenodd"
   d="m 63.171505,278.40774 -2.450475,-3.30301 c 1.050433,-0.91965 1.661976,-1.86452 1.829231,-2.83425 0.156376,-0.98484 -0.08807,-2.02014 -0.751248,-3.11829 -0.693821,-1.15442 -1.458262,-1.88278 -2.29876,-2.17459 -0.849029,-0.29336 -1.601443,-0.2464 -2.264601,0.15096 -0.415205,0.2499 -0.701974,0.59447 -0.842826,1.01938 -0.153275,0.42568 -0.153275,1.01046 -0.0027,1.75783 0.105937,0.50678 0.430343,1.62666 0.958852,3.35344 0.678297,2.22076 0.902192,3.92815 0.675195,5.12331 -0.326732,1.68953 -1.195174,2.953 -2.60337,3.80319 -0.913841,0.54404 -1.916147,0.80092 -3.004211,0.76328 -1.112517,-0.0469 -2.159455,-0.4253 -3.151671,-1.13813 -1.003477,-0.72603 -1.912657,-1.77645 -2.739956,-3.1474 -1.338748,-2.2324 -1.862208,-4.21568 -1.562256,-5.92965 0.298789,-1.73571 1.255704,-3.10898 2.863351,-4.16019 l 2.322425,3.51255 c -0.827299,0.70391 -1.284413,1.43575 -1.374825,2.1804 -0.101276,0.74776 0.150563,1.63288 0.759781,2.63635 0.627857,1.0512 1.332536,1.73881 2.119485,2.07408 0.506778,0.21924 0.9895,0.18471 1.454379,-0.0904 0.418694,-0.25649 0.672083,-0.65074 0.763271,-1.18236 0.105162,-0.68799 -0.161419,-2.03333 -0.794315,-4.03524 -0.647252,-1.9953 -0.989899,-3.54979 -1.048103,-4.65377 -0.06715,-1.10398 0.140473,-2.12685 0.630571,-3.06514 0.471857,-0.93207 1.276262,-1.73881 2.404685,-2.42021 1.020159,-0.60999 2.154018,-0.90723 3.382943,-0.87308 1.233586,0.031 2.382959,0.43771 3.443857,1.21341 1.05703,0.78266 2.050418,1.94252 2.977826,3.49701 1.355821,2.2584 1.875407,4.29755 1.570018,6.13105 -0.323239,1.83815 -1.41208,3.47064 -3.266534,4.90949"
   id="path17"
   inkscape:connector-curvature="0"
   style="fill-rule:evenodd" />
<polygon
   clip-rule="evenodd"
   points="133.522,661.086 142.146,680.487 163.58,670.943 167.98,680.842 118.977,702.654 114.567,692.764 133.869,684.17 125.224,664.784 105.927,673.377 101.53,663.472 150.549,641.65 154.946,651.549 "
   id="polygon19"
   transform="matrix(0.38804097,0,0,0.38804097,-5.9781695,-5.9172509)"
   style="fill-rule:evenodd" />
<path
   clip-rule="evenodd"
   d="m 31.572562,232.65423 5.756971,-1.32944 -0.519584,-2.24521 c -0.369029,-1.61463 -0.723695,-2.67127 -1.060129,-3.16291 -0.339536,-0.49359 -0.772982,-0.84089 -1.294891,-1.0384 -0.520755,-0.21614 -1.08535,-0.24369 -1.687202,-0.10594 -0.736508,0.16569 -1.293728,0.52541 -1.675173,1.06983 -0.378732,0.54442 -0.55024,1.16334 -0.516094,1.85174 0.02053,0.5126 0.195177,1.50403 0.541314,2.98092 l 0.454788,1.97941 z m 17.799052,0.20603 -20.284067,4.68018 -1.518796,-6.56877 c -0.572358,-2.49627 -0.844376,-4.13495 -0.819544,-4.94209 0.03921,-1.23591 0.476906,-2.3585 1.319732,-3.381 0.83196,-1.01667 2.05661,-1.71397 3.67358,-2.08649 1.241729,-0.29064 2.344543,-0.30345 3.295246,-0.0505 0.950702,0.26309 1.754332,0.67868 2.40197,1.27044 0.64415,0.58129 1.124159,1.21341 1.450891,1.89481 0.413257,0.93207 0.840102,2.32398 1.265396,4.18191 l 0.617768,2.66507 7.651774,-1.76054 0.94605,4.09693 z"
   id="path21"
   inkscape:connector-curvature="0"
   style="fill-rule:evenodd" />
<path
   clip-rule="evenodd"
   d="m 36.25815,204.92947 -7.448835,3.53117 7.940096,2.12685 -0.491261,-5.65802 z m 7.52994,-8.4267 0.396963,4.56026 -4.551328,2.21804 0.724472,8.29166 4.862154,1.298 0.386099,4.445 -21.439262,-6.26258 -0.391148,-4.4291 20.01205,-10.12128 z"
   id="path23"
   inkscape:connector-curvature="0"
   style="fill-rule:evenodd" />
<path
   clip-rule="evenodd"
   d="m 36.916655,196.24084 -0.256492,-4.10469 c 1.383751,-0.19674 2.405082,-0.65618 3.077941,-1.38337 0.669369,-0.73068 1.025983,-1.73921 1.069444,-3.01392 0.04846,-1.35891 -0.201398,-2.38373 -0.745814,-3.0857 -0.550249,-0.71283 -1.210692,-1.08185 -1.978236,-1.10708 -0.490874,-0.0143 -0.913445,0.11098 -1.26501,0.39425 -0.359715,0.27474 -0.67752,0.76134 -0.958465,1.47611 -0.189362,0.48 -0.532008,1.59524 -1.027535,3.32745 -0.638325,2.23861 -1.381037,3.79233 -2.222311,4.67357 -1.191279,1.23824 -2.605696,1.82457 -4.253702,1.7714 -1.060517,-0.0376 -2.037603,-0.37484 -2.937081,-1.00385 -0.904139,-0.63679 -1.576223,-1.52501 -2.020534,-2.67166 -0.442751,-1.14939 -0.638325,-2.52654 -0.580509,-4.12218 0.08654,-2.61344 0.733786,-4.56063 1.92236,-5.83534 1.190124,-1.28093 2.744607,-1.92159 4.656102,-1.92159 l 0.03877,4.20482 c -1.075656,0.14395 -1.857943,0.50057 -2.337563,1.08962 -0.495914,0.56382 -0.766381,1.4435 -0.804018,2.62625 -0.0423,1.21963 0.173844,2.18506 0.653843,2.88819 0.303451,0.45867 0.730296,0.69498 1.268508,0.71517 0.492425,0.0183 0.917719,-0.17657 1.284025,-0.57663 0.464491,-0.51959 0.97127,-1.78811 1.524621,-3.81445 0.556831,-2.02713 1.107467,-3.51759 1.66236,-4.4776 0.541322,-0.9635 1.277823,-1.70505 2.19399,-2.2227 0.908792,-0.52541 2.023628,-0.76328 3.334433,-0.7175 1.192839,0.0338 2.298368,0.40629 3.310375,1.1036 1.02482,0.70196 1.762871,1.66547 2.236675,2.89323 0.45478,1.22272 0.655007,2.74462 0.592539,4.55133 -0.09352,2.63635 -0.765994,4.63088 -2.028686,6.00184 -1.271997,1.36164 -3.075218,2.14392 -5.410068,2.34143"
   id="path25"
   inkscape:connector-curvature="0"
   style="fill-rule:evenodd" />
<polygon
   clip-rule="evenodd"
   points="91.765,426.947 89.552,442.666 133.695,448.872 132.176,459.593 88.033,453.387 85.828,469.153 76.833,467.895 82.785,425.679 "
   id="polygon27"
   transform="matrix(0.38804097,0,0,0.38804097,-5.9781695,-5.9172509)"
   style="fill-rule:evenodd" />
<path
   clip-rule="evenodd"
   d="m 38.019082,154.5377 c 2.255295,0.6876 4.122156,0.6876 5.607968,0.006 1.476498,-0.68839 2.459795,-1.83156 2.952996,-3.433 0.490873,-1.60767 0.317029,-3.09192 -0.521144,-4.46441 -0.846314,-1.38415 -2.419436,-2.43341 -4.724783,-3.13616 -2.285177,-0.70196 -4.141173,-0.72019 -5.570332,-0.057 -1.428375,0.65385 -2.393044,1.80905 -2.901384,3.46481 -0.506391,1.65928 -0.342249,3.16914 0.486221,4.53271 0.819932,1.35388 2.380628,2.38878 4.670458,3.08687 m -1.133851,4.1858 c -2.020535,-0.62358 -3.634394,-1.45089 -4.826069,-2.4757 -0.871157,-0.75978 -1.595627,-1.65344 -2.162937,-2.67709 -0.565766,-1.03491 -0.899487,-2.07797 -1.002314,-3.13577 -0.146676,-1.39384 0.02952,-2.90875 0.522694,-4.52921 0.897539,-2.93398 2.520713,-4.99991 4.877672,-6.20089 2.361621,-1.2041 5.164442,-1.31352 8.398373,-0.32325 3.218413,0.98369 5.467497,2.62549 6.754236,4.9289 1.27472,2.3042 1.466795,4.9091 0.570816,7.83688 -0.904527,2.96037 -2.520722,5.03872 -4.855951,6.23349 -2.347645,1.19516 -5.105067,1.31468 -8.27652,0.34264"
   id="path29"
   inkscape:connector-curvature="0"
   style="fill-rule:evenodd" />
<path
   clip-rule="evenodd"
   d="m 44.027513,131.66656 1.271609,-2.83697 c 0.819543,-1.84862 1.252593,-3.0306 1.301491,-3.56221 0.04653,-0.52541 -0.05508,-0.9996 -0.324018,-1.4311 -0.262704,-0.43305 -0.681786,-0.76948 -1.255704,-1.02403 -0.638325,-0.28328 -1.229699,-0.3411 -1.774899,-0.17114 -0.544415,0.16415 -1.012008,0.53201 -1.393841,1.10941 -0.18121,0.29413 -0.620868,1.21302 -1.312356,2.76984 l -1.332527,2.99723 4.820245,2.14897 z m 9.26603,8.72821 -19.01867,-8.47172 3.603349,-8.08095 c 0.905303,-2.0345 1.736099,-3.4264 2.491228,-4.19239 0.745814,-0.77609 1.680989,-1.24213 2.798934,-1.41208 1.121444,-0.16492 2.245981,0.0124 3.370527,0.50639 1.42411,0.636 2.417886,1.58127 2.98093,2.83386 0.551402,1.25221 0.573909,2.76324 0.07331,4.54164 0.852528,-0.61156 1.691855,-1.05742 2.511012,-1.33837 0.819931,-0.28792 2.175748,-0.55723 4.061626,-0.81371 l 4.746519,-0.67559 -2.053514,4.59945 -5.366606,0.93208 c -1.918861,0.32208 -3.145072,0.58478 -3.689107,0.78035 -0.55218,0.18587 -0.987564,0.45479 -1.304593,0.80053 -0.330222,0.34264 -0.691101,0.95885 -1.08535,1.83311 l -0.346136,0.78035 7.939707,3.53699 -1.713198,3.84006 z"
   id="path31"
   inkscape:connector-curvature="0"
   style="fill-rule:evenodd" />
<path
   clip-rule="evenodd"
   d="m 60.280997,108.74303 -8.073976,-1.65925 5.060443,6.4733 3.013533,-4.81405 z m 11.078571,-2.20368 -2.420608,3.88469 -4.974292,-0.96972 -4.410864,7.06273 3.104724,3.96113 -2.364727,3.783 -13.3556,-17.91158 2.353082,-3.76865 22.068285,3.9584 z"
   id="path33"
   inkscape:connector-curvature="0"
   style="fill-rule:evenodd" />
<polygon
   clip-rule="evenodd"
   points="201.307,273.507 218.25,252.566 225.274,258.254 201.512,287.615 160.149,254.126 166.977,245.716 "
   id="polygon35"
   transform="matrix(0.38804097,0,0,0.38804097,-5.9781695,-5.9172509)"
   style="fill-rule:evenodd" />
<path
   clip-rule="evenodd"
   d="m 92.857427,72.777463 3.893983,-1.771794 c 1.057413,2.108219 1.41092,4.061621 1.069833,5.861741 -0.342247,1.784606 -1.341849,3.424854 -3.004208,4.92308 -2.052362,1.848622 -4.37401,2.665064 -6.956807,2.45397 -2.587842,-0.211094 -4.975853,-1.537421 -7.167114,-3.972373 -2.319715,-2.576983 -3.459778,-5.171041 -3.407781,-7.78992 0.04733,-2.625496 1.149381,-4.91493 3.313868,-6.865231 1.897144,-1.704273 3.933581,-2.52692 6.130664,-2.480352 1.294506,0.03338 2.677484,0.507165 4.143899,1.432257 l -2.429915,3.523803 c -0.901037,-0.637945 -1.854847,-0.925091 -2.860252,-0.868047 -0.993771,0.05361 -1.901788,0.461765 -2.735304,1.207967 -1.146662,1.030246 -1.710871,2.279744 -1.678274,3.75041 0.02248,1.463312 0.868047,3.116363 2.527303,4.96033 1.760934,1.954572 3.368585,3.0306 4.822579,3.229284 1.451658,0.195188 2.73607,-0.211094 3.863331,-1.227761 0.828862,-0.748921 1.307318,-1.648397 1.431098,-2.71823 0.119125,-1.063618 -0.198291,-2.284398 -0.956903,-3.649134"
   id="path37"
   inkscape:connector-curvature="0"
   style="fill-rule:evenodd" />
<path
   clip-rule="evenodd"
   d="m 100.07499,64.046546 c 1.28441,1.976279 2.71356,3.184256 4.2925,3.616144 1.56846,0.422188 3.06126,0.179666 4.46674,-0.740379 1.4082,-0.906859 2.23085,-2.157506 2.47144,-3.752737 0.24523,-1.601456 -0.29026,-3.413992 -1.60145,-5.442281 -1.30148,-1.995702 -2.70697,-3.209486 -4.23237,-3.622365 -1.51219,-0.41249 -2.99451,-0.149786 -4.45237,0.794712 -1.44973,0.938278 -2.29604,2.203295 -2.53392,3.786498 -0.24485,1.561868 0.28328,3.358502 1.58943,5.360408 m -3.55485,2.481903 c -1.155587,-1.783831 -1.858333,-3.446572 -2.111331,-4.999908 -0.178114,-1.143173 -0.159479,-2.29255 0.06411,-3.446582 0.234765,-1.155193 0.644926,-2.164495 1.246769,-3.038745 0.785013,-1.169945 1.892097,-2.206018 3.312322,-3.131879 2.57116,-1.672459 5.14969,-2.210284 7.72396,-1.613868 2.58474,0.586334 4.79735,2.30458 6.64675,5.146201 1.83117,2.821449 2.49433,5.525317 2.00191,8.112001 -0.50368,2.585516 -2.03528,4.711977 -4.60255,6.37784 -2.59523,1.687199 -5.17104,2.232783 -7.72863,1.649949 -2.56262,-0.593311 -4.75038,-2.277025 -6.553226,-5.055009"
   id="path39"
   inkscape:connector-curvature="0"
   style="fill-rule:evenodd" />
<path
   clip-rule="evenodd"
   d="m 111.96805,44.34027 3.80552,-1.784602 4.76475,10.222937 c 0.75707,1.622011 1.2949,2.652647 1.61503,3.091909 0.5254,0.691099 1.20099,1.137348 2.02712,1.326322 0.83702,0.165692 1.78189,0.01322 2.84473,-0.484661 1.08264,-0.505228 1.79702,-1.103591 2.14004,-1.799343 0.34537,-0.701577 0.41871,-1.39734 0.22934,-2.091929 -0.18936,-0.697313 -0.63017,-1.793528 -1.32633,-3.288645 l -4.86487,-10.436365 3.80941,-1.772959 4.61807,9.905518 c 1.05703,2.270822 1.69963,3.916889 1.93129,4.947914 0.22661,1.035288 0.21419,1.995692 -0.0423,2.899056 -0.2499,0.899478 -0.74892,1.761699 -1.48853,2.574651 -0.75435,0.815271 -1.87695,1.566909 -3.37052,2.264602 -1.80012,0.839721 -3.26692,1.271216 -4.39147,1.298384 -1.12298,0.0088 -2.10938,-0.189357 -2.9557,-0.596424 -0.85873,-0.41869 -1.53664,-0.950301 -2.05041,-1.601051 -0.75202,-0.965057 -1.62046,-2.502472 -2.60375,-4.615356 l -4.6914,-10.059958 z"
   id="path41"
   inkscape:connector-curvature="0"
   style="fill-rule:evenodd" />
<polygon
   clip-rule="evenodd"
   points="356.781,106.056 366.793,102.803 398.76,130.091 387.681,96.02 397.258,92.909 413.83,143.945 403.496,147.292 372.117,120.701 382.922,153.971 373.354,157.082 "
   id="polygon43"
   transform="matrix(0.38804097,0,0,0.38804097,-5.9781695,-5.9172509)"
   style="fill-rule:evenodd" />
<path
   clip-rule="evenodd"
   d="m 169.45749,39.654285 4.22926,0.64259 c -0.26542,2.342992 -1.02676,4.174156 -2.29527,5.494276 -1.25881,1.311968 -2.9918,2.139266 -5.20169,2.494717 -2.7256,0.427233 -5.12175,-0.150562 -7.17332,-1.726398 -2.05081,-1.595627 -3.33444,-4.010014 -3.84705,-7.241231 -0.5386,-3.424853 -0.0807,-6.219523 1.38958,-8.38557 1.4699,-2.180401 3.63788,-3.493524 6.52375,-3.95219 2.51101,-0.394249 4.67434,0.01824 6.48067,1.261908 1.07254,0.727185 1.97435,1.876951 2.70154,3.450073 l -3.95181,1.629773 c -0.41248,-1.024432 -1.05391,-1.781499 -1.92818,-2.280136 -0.86727,-0.497464 -1.85134,-0.653843 -2.95221,-0.476898 -1.52538,0.235924 -2.67748,0.982135 -3.45977,2.225414 -0.76949,1.24639 -0.96467,3.08997 -0.57663,5.544328 0.41248,2.594443 1.17925,4.372832 2.28517,5.329746 1.10979,0.956906 2.4109,1.31352 3.90951,1.076036 1.10203,-0.176946 1.99492,-0.675582 2.68021,-1.50133 0.68721,-0.827308 1.08301,-2.022472 1.18624,-3.585108"
   id="path45"
   inkscape:connector-curvature="0"
   style="fill-rule:evenodd" />
<polygon
   clip-rule="evenodd"
   points="468.678,81.188 479.474,80.431 483.231,133.948 472.409,134.69 "
   id="polygon47"
   transform="matrix(0.38804097,0,0,0.38804097,-5.9781695,-5.9172509)"
   style="fill-rule:evenodd" />
<polygon
   clip-rule="evenodd"
   points="502.725,124.295 529.647,124.74 529.495,133.804 491.739,133.127 492.662,79.931 503.499,80.121 "
   id="polygon49"
   transform="matrix(0.38804097,0,0,0.38804097,-5.9781695,-5.9172509)"
   style="fill-rule:evenodd" />
<polygon
   clip-rule="evenodd"
   points="563.059,83.039 599.369,88.774 597.943,97.752 572.327,93.694 570.344,106.241 592.455,109.731 591.035,118.695 568.926,115.204 565.355,137.721 554.649,136.012 "
   id="polygon51"
   transform="matrix(0.38804097,0,0,0.38804097,-5.9781695,-5.9172509)"
   style="fill-rule:evenodd" />
<path
   clip-rule="evenodd"
   d="m 231.85681,40.662028 c -0.72836,2.237442 -0.76677,4.109739 -0.10944,5.61107 0.66316,1.488914 1.78849,2.488505 3.3779,3.007321 1.59485,0.523073 3.09346,0.372519 4.47877,-0.440434 1.40122,-0.821095 2.47725,-2.376751 3.22229,-4.672783 0.73533,-2.270823 0.78811,-4.122941 0.14357,-5.57072 -0.62242,-1.430702 -1.75743,-2.417498 -3.40932,-2.95571 -1.64452,-0.531611 -3.15245,-0.394249 -4.53542,0.406666 -1.37639,0.80014 -2.43302,2.336789 -3.16835,4.61459 m -4.16602,-1.201378 c 0.65657,-2.020525 1.50406,-3.615765 2.55526,-4.78571 0.77919,-0.864944 1.68292,-1.56846 2.72094,-2.1187 1.04499,-0.545975 2.08649,-0.866495 3.14352,-0.946438 1.40509,-0.123007 2.90913,0.07331 4.52339,0.599138 2.91846,0.952641 4.95412,2.6119 6.11165,4.987876 1.16644,2.382963 1.22892,5.185396 0.1812,8.4073 -1.0349,3.196295 -2.72442,5.415496 -5.04529,6.662273 -2.3232,1.232422 -4.93511,1.384139 -7.85046,0.438874 -2.94019,-0.958458 -4.99487,-2.617338 -6.14309,-4.974685 -1.15713,-2.362783 -1.21999,-5.124858 -0.19712,-8.269928"
   id="path53"
   inkscape:connector-curvature="0"
   style="fill-rule:evenodd" />
<path
   clip-rule="evenodd"
   d="m 254.56729,47.159772 2.81523,1.313519 c 1.8335,0.858343 3.00888,1.310409 3.537,1.37211 0.52579,0.0497 1.00464,-0.0423 1.43962,-0.30849 0.4319,-0.256889 0.78424,-0.663166 1.04462,-1.228924 0.29685,-0.641436 0.36515,-1.227761 0.20255,-1.771798 -0.15328,-0.550628 -0.50678,-1.02482 -1.08186,-1.41247 -0.29064,-0.18936 -1.20719,-0.647251 -2.75315,-1.365519 l -2.97123,-1.3822 -2.23278,4.783772 z m -8.88536,9.115468 8.79572,-18.868099 8.02197,3.734499 c 2.01742,0.944498 3.3973,1.797025 4.14466,2.566508 0.76328,0.755129 1.21691,1.699618 1.36629,2.827653 0.14475,1.121048 -0.0461,2.238994 -0.56576,3.353061 -0.65695,1.418295 -1.62318,2.396155 -2.88042,2.93398 -1.26696,0.53161 -2.78381,0.53161 -4.54785,0 0.6003,0.861454 1.0322,1.707381 1.2949,2.526537 0.27201,0.828075 0.51881,2.191267 0.74427,4.077145 l 0.59059,4.758156 -4.56025,-2.126854 -0.84129,-5.387948 c -0.28753,-1.928563 -0.53161,-3.157487 -0.71283,-3.703462 -0.1816,-0.55024 -0.44119,-0.996103 -0.77608,-1.318173 -0.3407,-0.332944 -0.93827,-0.708177 -1.81719,-1.115619 l -0.77608,-0.360879 -3.66815,7.881884 -3.8125,-1.778389 z"
   id="path55"
   inkscape:connector-curvature="0"
   style="fill-rule:evenodd" />
<path
   clip-rule="evenodd"
   d="m 280.40306,61.510298 2.51217,1.829614 c 1.63598,1.182753 2.69959,1.858332 3.20289,2.011606 0.50756,0.155993 0.99804,0.149778 1.4734,-0.01591 0.47845,-0.170348 0.89754,-0.51609 1.26384,-1.016667 0.40939,-0.569256 0.59098,-1.129587 0.53162,-1.700012 -0.0384,-0.570807 -0.29996,-1.10242 -0.79122,-1.594838 -0.25028,-0.235934 -1.06323,-0.859129 -2.43651,-1.858333 l -2.65924,-1.928175 -3.09695,4.272721 z m -10.46159,7.245504 12.22678,-16.833602 7.16828,5.190437 c 1.78927,1.307307 2.98365,2.416326 3.57891,3.309213 0.59369,0.897924 0.863,1.902946 0.79431,3.03758 -0.0749,1.12998 -0.46952,2.186225 -1.19167,3.189696 -0.91927,1.260357 -2.05235,2.039156 -3.39341,2.323975 -1.33836,0.275119 -2.82145,-0.01247 -4.45433,-0.867654 0.41908,0.965052 0.688,1.876565 0.7854,2.725604 0.10594,0.870757 0.0932,2.248688 -0.0478,4.147384 l -0.32479,4.782599 -4.06978,-2.95221 0.20373,-5.455468 c 0.0745,-1.940207 0.0784,-3.199397 0,-3.765943 -0.0686,-0.582835 -0.24407,-1.062842 -0.5126,-1.445069 -0.26969,-0.394638 -0.7951,-0.877748 -1.56769,-1.441574 l -0.69071,-0.499016 -5.10468,7.023541 -3.40001,-2.469493 z"
   id="path57"
   inkscape:connector-curvature="0"
   style="fill-rule:evenodd" />
<polygon
   clip-rule="evenodd"
   points="765.94,223.86 787.85,244.31 781.699,250.907 751.858,223.081 788.445,183.86 817.536,210.974 811.346,217.617 790.188,197.865 782.069,206.573 801.763,224.955 795.595,231.558 775.912,213.188 "
   id="polygon59"
   transform="matrix(0.38804097,0,0,0.38804097,-5.9781695,-5.9172509)"
   style="fill-rule:evenodd" />
<path
   clip-rule="evenodd"
   d="m 303.37081,88.141938 2.93049,2.869953 c -0.89095,1.068665 -1.34457,2.104742 -1.3566,3.089579 -0.0128,0.99611 0.4028,1.98018 1.22621,2.96037 0.86844,1.03103 1.73881,1.63288 2.60764,1.79081 0.89211,0.15677 1.62668,-0.008 2.21844,-0.50057 0.37561,-0.32053 0.59718,-0.69421 0.67208,-1.14007 0.0842,-0.44547 -0.006,-1.02404 -0.27163,-1.7388 -0.19169,-0.48623 -0.67636,-1.536659 -1.46758,-3.157506 -1.01937,-2.092312 -1.51064,-3.740709 -1.47222,-4.962265 0.0531,-1.712422 0.71594,-3.102774 1.97629,-4.159401 0.81294,-0.682187 1.76442,-1.09002 2.85559,-1.221566 1.09428,-0.137358 2.18895,0.07835 3.2871,0.628638 1.09776,0.560331 2.15829,1.450881 3.19047,2.674371 1.67983,2.001906 2.50558,3.87847 2.47415,5.623489 -0.0283,1.75201 -0.75667,3.26692 -2.17418,4.54164 l -2.84009,-3.093468 c 0.7012,-0.825749 1.03608,-1.613473 1.01667,-2.374422 -0.0218,-0.754734 -0.40667,-1.587081 -1.16994,-2.487735 -0.78461,-0.938277 -1.59523,-1.508702 -2.42022,-1.712422 -0.53161,-0.138919 -1.00463,-0.0326 -1.41673,0.315865 -0.37872,0.320912 -0.56654,0.746202 -0.57274,1.291786 0,0.694597 0.47263,1.975131 1.42643,3.852481 0.94449,1.876565 1.51996,3.354225 1.75706,4.443065 0.23515,1.07914 0.19091,2.12025 -0.14358,3.11247 -0.32557,1.00348 -0.99145,1.92817 -1.99531,2.77101 -0.91965,0.7722 -1.98948,1.23241 -3.20328,1.39578 -1.22892,0.16337 -2.42059,-0.0571 -3.59675,-0.65618 -1.16994,-0.60845 -2.32437,-1.60145 -3.48461,-2.98559 -1.69535,-2.02014 -2.53352,-3.95801 -2.50829,-5.815961 0.0284,-1.864527 0.84437,-3.655339 2.45513,-5.355351"
   id="path61"
   inkscape:connector-curvature="0"
   style="fill-rule:evenodd" />
<path
   clip-rule="evenodd"
   d="m 327.28266,101.67255 -5.00417,3.13265 1.21962,1.9468 c 0.87659,1.40626 1.55566,2.29138 2.03993,2.63984 0.47807,0.36165 0.99765,0.55102 1.55449,0.5774 0.56616,0.0248 1.11058,-0.13154 1.63598,-0.45245 0.63522,-0.40007 1.04771,-0.91926 1.22621,-1.55798 0.18432,-0.64259 0.14319,-1.28364 -0.11292,-1.92818 -0.1816,-0.4738 -0.67558,-1.35077 -1.4827,-2.63751 l -1.07644,-1.72057 z m -16.89297,5.59904 17.65316,-11.02697 3.57813,5.7174 c 1.35503,2.17071 2.14858,3.63439 2.38411,4.41009 0.36515,1.16839 0.32169,2.37559 -0.14706,3.61615 -0.45711,1.23513 -1.38298,2.29255 -2.79313,3.16952 -1.08263,0.68373 -2.11404,1.0512 -3.10587,1.12105 -0.97632,0.0675 -1.87696,-0.0699 -2.6837,-0.41248 -0.7947,-0.34575 -1.45748,-0.7885 -1.9825,-1.32633 -0.6942,-0.7462 -1.55177,-1.92818 -2.55912,-3.54204 l -1.45788,-2.32243 -6.65529,4.15981 -2.23085,-3.56377 z"
   id="path63"
   inkscape:connector-curvature="0"
   style="fill-rule:evenodd" />
<path
   clip-rule="evenodd"
   d="m 330.93608,121.52821 c -2.13268,0.9961 -3.52497,2.24404 -4.17261,3.74653 -0.63793,1.50289 -0.6003,3.00771 0.10361,4.52961 0.71011,1.51491 1.8331,2.50053 3.381,2.96542 1.55139,0.46719 3.41902,0.18587 5.61146,-0.83235 2.15829,-1.00581 3.55019,-2.23202 4.16911,-3.68291 0.62902,-1.44196 0.57275,-2.9464 -0.16531,-4.51951 -0.72291,-1.57001 -1.85832,-2.58164 -3.38759,-3.03409 -1.52306,-0.45982 -3.36587,-0.18471 -5.53967,0.8273 m -1.95495,-3.86645 c 1.92351,-0.8987 3.66932,-1.36511 5.23584,-1.39654 1.16373,-0.0155 2.29953,0.16297 3.40932,0.54403 1.10748,0.38804 2.05468,0.93828 2.83387,1.65304 1.0477,0.94528 1.92973,2.19089 2.64566,3.71628 1.29217,2.78187 1.47106,5.40618 0.52308,7.87529 -0.95109,2.4792 -2.95882,4.43531 -6.03055,5.86795 -3.03719,1.42179 -5.81479,1.70002 -8.30717,0.85098 -2.48929,-0.85874 -4.37905,-2.67128 -5.67394,-5.44111 -1.30382,-2.80242 -1.49551,-5.43257 -0.55684,-7.8881 0.93868,-2.45979 2.91535,-4.38525 5.92073,-5.78182"
   id="path65"
   inkscape:connector-curvature="0"
   style="fill-rule:evenodd" />
<polygon
   clip-rule="evenodd"
   points="914.021,366.079 917.1,376.146 889.258,407.639 923.523,397.153 926.474,406.775 875.151,422.469 871.976,412.067 899.108,381.152 865.648,391.401 862.715,381.761 "
   id="polygon67"
   transform="matrix(0.38804097,0,0,0.38804097,-5.9781695,-5.9172509)"
   style="fill-rule:evenodd" />
<path
   clip-rule="evenodd"
   d="m 340.6728,158.9924 1.03568,3.9782 c -1.32011,0.45905 -2.23938,1.10747 -2.75819,1.94719 -0.51609,0.84787 -0.67248,1.90528 -0.47613,3.16409 0.20992,1.33873 0.65695,2.3034 1.32012,2.88237 0.67557,0.59602 1.39811,0.83351 2.15168,0.70817 0.48816,-0.0733 0.87581,-0.28133 1.16995,-0.62359 0.29413,-0.33953 0.51958,-0.88511 0.66005,-1.63404 0.0873,-0.51183 0.21304,-1.67206 0.36903,-3.46559 0.19712,-2.31661 0.62863,-3.97742 1.29179,-5.00611 0.93207,-1.44352 2.21067,-2.29333 3.84083,-2.54672 1.04422,-0.16531 2.06709,-0.028 3.07134,0.41948 1.01046,0.45207 1.84514,1.19439 2.49277,2.23589 0.65114,1.04461 1.11058,2.35735 1.36049,3.93977 0.40744,2.57893 0.15093,4.61225 -0.78191,6.08527 -0.92625,1.48891 -2.3236,2.41516 -4.20093,2.78691 l -0.8405,-4.12916 c 1.0318,-0.34534 1.72562,-0.84553 2.09465,-1.50908 0.37251,-0.6488 0.46642,-1.56187 0.28211,-2.73491 -0.18782,-1.20719 -0.58517,-2.10668 -1.18897,-2.71203 -0.38727,-0.38804 -0.85369,-0.53781 -1.3822,-0.45787 -0.48776,0.0769 -0.87543,0.34845 -1.15093,0.81333 -0.3601,0.59525 -0.60999,1.9371 -0.7691,4.03639 -0.16336,2.09387 -0.42568,3.66234 -0.7788,4.70694 -0.34768,1.05392 -0.92626,1.92197 -1.73027,2.60376 -0.79122,0.68838 -1.83893,1.13696 -3.14041,1.34534 -1.17577,0.18587 -2.33019,0.0326 -3.46521,-0.46488 -1.1292,-0.48621 -2.03992,-1.29334 -2.73724,-2.40857 -0.688,-1.11562 -1.16723,-2.56767 -1.45167,-4.35187 -0.41248,-2.60066 -0.13076,-4.69142 0.84866,-6.27424 0.98523,-1.58864 2.60531,-2.69766 4.86331,-3.33444"
   id="path69"
   inkscape:connector-curvature="0"
   style="fill-rule:evenodd" />
<polygon
   clip-rule="evenodd"
   points="936.921,473.682 937.686,484.496 884.164,488.244 883.397,477.438 "
   id="polygon71"
   transform="matrix(0.38804097,0,0,0.38804097,-5.9781695,-5.9172509)"
   style="fill-rule:evenodd" />
<path
   clip-rule="evenodd"
   d="m 346.38749,191.08417 -5.56801,-0.10012 -0.0628,3.89904 c -0.0303,1.50405 0,2.47066 0.0757,2.88392 0.094,0.62242 0.36322,1.1358 0.79743,1.53238 0.435,0.40006 1.02908,0.61271 1.76093,0.62552 0.6197,0.012 1.15132,-0.13154 1.59834,-0.4253 0.44159,-0.29452 0.76638,-0.73572 0.97903,-1.30148 0.20256,-0.56926 0.32596,-1.81099 0.35971,-3.7155 l 0.0598,-3.39846 z m 8.27651,0.14358 -4.81015,-0.0857 -0.0536,2.75664 c -0.0252,1.64063 -0.0221,2.65458 0.0183,3.05465 0.0725,0.71904 0.31004,1.28559 0.7105,1.70428 0.40628,0.42218 0.9507,0.64142 1.62007,0.65113 0.64453,0.006 1.16994,-0.15909 1.57661,-0.51338 0.40667,-0.34031 0.66937,-0.85989 0.75978,-1.56031 0.0536,-0.41249 0.10051,-1.61347 0.13776,-3.59249 l 0.0407,-2.41477 z m 3.54049,-4.14118 -0.14746,8.32193 c -0.0341,1.64762 -0.11835,2.87071 -0.27744,3.67125 -0.14707,0.81372 -0.4447,1.53315 -0.8925,2.15868 -0.44353,0.63832 -1.03451,1.15984 -1.77606,1.5766 -0.72253,0.41288 -1.52927,0.61311 -2.4369,0.5937 -0.97552,-0.019 -1.86376,-0.29995 -2.67049,-0.84398 -0.80752,-0.532 -1.3985,-1.25415 -1.79198,-2.15867 -0.38804,1.26384 -1.03568,2.22735 -1.94253,2.89051 -0.89793,0.66937 -1.94874,0.98796 -3.15322,0.96623 -0.9476,-0.0186 -1.86105,-0.25339 -2.75199,-0.70973 -0.889,-0.45672 -1.5898,-1.06323 -2.11521,-1.8494 -0.52501,-0.75978 -0.82498,-1.70777 -0.9313,-2.82417 -0.066,-0.70003 -0.0819,-2.38878 -0.0566,-5.07247 l 0.12806,-7.08135 20.81568,0.36087 z"
   id="path73"
   inkscape:connector-curvature="0"
   style="fill-rule:evenodd" />
<polygon
   clip-rule="evenodd"
   points="891.072,559.886 887.307,586.55 878.353,585.283 883.615,547.892 936.314,555.3 934.799,566.021 "
   id="polygon75"
   transform="matrix(0.38804097,0,0,0.38804097,-5.9781695,-5.9172509)"
   style="fill-rule:evenodd" />
<polygon
   clip-rule="evenodd"
   points="883.197,602.978 875.958,632.06 867.181,629.883 877.054,590.273 929.117,603.258 919.492,641.861 910.675,639.661 917.688,611.586 906.129,608.692 899.632,634.825 890.854,632.639 897.368,606.508 "
   id="polygon77"
   transform="matrix(0.38804097,0,0,0.38804097,-5.9781695,-5.9172509)"
   style="fill-rule:evenodd" />
<polygon
   clip-rule="evenodd"
   points="852.341,666.381 909.152,670.677 904.387,681.397 862.578,677.666 893.506,705.806 888.831,716.308 847.642,676.932 "
   id="polygon79"
   transform="matrix(0.38804097,0,0,0.38804097,-5.9781695,-5.9172509)"
   style="fill-rule:evenodd" />
<path
   clip-rule="evenodd"
   d="m 326.36302,272.68414 c -2.00152,-1.25415 -3.80009,-1.73959 -5.41706,-1.45748 -1.60415,0.27473 -2.84628,1.12881 -3.7376,2.55176 -0.88474,1.41984 -1.10088,2.90215 -0.65114,4.445 0.45362,1.56031 1.70776,2.98093 3.75701,4.25681 2.02053,1.26386 3.80668,1.76093 5.36118,1.49163 1.54789,-0.2627 2.78303,-1.1288 3.69958,-2.59871 0.91655,-1.46369 1.15093,-2.96541 0.70391,-4.49816 -0.44354,-1.52657 -1.68294,-2.92467 -3.71588,-4.19085 m 2.1804,-3.74731 c 1.79896,1.12027 3.13731,2.33328 4.02243,3.63439 0.64377,0.96351 1.11678,2.01394 1.3919,3.14624 0.27512,1.14511 0.33488,2.23666 0.1653,3.28476 -0.22157,1.38803 -0.7815,2.80283 -1.68254,4.24129 -1.62628,2.59871 -3.7283,4.17532 -6.31459,4.72596 -2.58979,0.55955 -5.32741,-0.066 -8.20163,-1.85795 -2.849,-1.77994 -4.59752,-3.95065 -5.23894,-6.50822 -0.63445,-2.55254 -0.14979,-5.1268 1.46989,-7.71348 1.64219,-2.62743 3.7446,-4.21917 6.31538,-4.7729 2.56495,-0.54521 5.26066,0.0614 8.0728,1.81991"
   id="path81"
   inkscape:connector-curvature="0"
   style="fill-rule:evenodd" />
<polygon
   clip-rule="evenodd"
   points="817.883,800.619 828.095,788.465 793.95,759.818 800.914,751.515 835.068,780.162 845.289,767.976 852.229,773.811 824.831,806.456 "
   id="polygon83"
   transform="matrix(0.38804097,0,0,0.38804097,-5.9781695,-5.9172509)"
   style="fill-rule:evenodd" />
<polygon
   clip-rule="evenodd"
   points="818.696,812.55 811.176,820.337 772.582,783.058 780.103,775.279 "
   id="polygon85"
   transform="matrix(0.38804097,0,0,0.38804097,-5.9781695,-5.9172509)"
   style="fill-rule:evenodd" />
<polygon
   clip-rule="evenodd"
   points="801.874,830.299 793.807,837.086 753.954,823.737 776.976,851.191 769.278,857.656 734.794,816.556 743.114,809.584 782.166,822.48 759.67,795.672 767.385,789.206 "
   id="polygon87"
   transform="matrix(0.38804097,0,0,0.38804097,-5.9781695,-5.9172509)"
   style="fill-rule:evenodd" />
<path
   clip-rule="evenodd"
   d="m 272.59062,324.62381 1.90762,2.94678 -7.59397,4.9289 -4.52261,-6.95602 c 0.27472,-1.18857 0.93789,-2.51451 1.99491,-3.97819 1.04539,-1.44546 2.2778,-2.64024 3.72248,-3.57193 1.8238,-1.18313 3.66272,-1.84242 5.51134,-1.96154 1.85794,-0.10942 3.59093,0.32245 5.19859,1.30421 1.60727,0.97863 2.96191,2.31117 4.05037,3.991 1.17577,1.8137 1.84552,3.67824 2.00153,5.59206 0.15598,1.90178 -0.25341,3.71626 -1.23553,5.41743 -0.74077,1.3042 -1.94215,2.49899 -3.61538,3.58822 -2.1645,1.40974 -4.14777,2.0477 -5.95798,1.92274 -1.81177,-0.11253 -3.41283,-0.8599 -4.80473,-2.22658 l 3.07794,-2.93359 c 0.80053,0.6977 1.70389,1.06905 2.71164,1.1195 0.99454,0.0628 2.00189,-0.23787 3.01818,-0.89443 1.54246,-1.00465 2.44931,-2.28401 2.73025,-3.85441 0.26892,-1.56963 -0.21845,-3.30844 -1.46368,-5.22925 -1.35078,-2.07408 -2.81447,-3.32783 -4.4163,-3.77525 -1.58941,-0.43809 -3.1311,-0.16879 -4.62933,0.80054 -0.73495,0.48465 -1.37599,1.11017 -1.93283,1.87384 -0.55373,0.7722 -0.96623,1.5448 -1.22893,2.30225 l 1.43847,2.21687 4.03795,-2.62315 z"
   id="path89"
   inkscape:connector-curvature="0"
   style="fill-rule:evenodd" />
<path
   clip-rule="evenodd"
   d="m 147.0683,335.68414 -1.62628,5.67005 2.2126,0.64144 c 1.58942,0.45634 2.68369,0.65618 3.28244,0.60068 0.59564,-0.0598 1.11213,-0.26309 1.53742,-0.6197 0.43654,-0.36552 0.7365,-0.83816 0.91035,-1.42954 0.20489,-0.72214 0.16259,-1.38569 -0.12883,-1.98328 -0.28871,-0.59719 -0.74543,-1.04693 -1.36513,-1.35698 -0.45945,-0.22816 -1.41828,-0.54752 -2.87267,-0.96622 l -1.9499,-0.55645 z m -8.80775,15.46383 5.7364,-20.01206 6.48533,1.85833 c 2.45669,0.70624 4.03019,1.26928 4.71781,1.67945 1.06051,0.62862 1.83154,1.56031 2.3197,2.79311 0.48273,1.21691 0.49553,2.62742 0.0376,4.22305 -0.34924,1.22543 -0.86534,2.19826 -1.55062,2.90876 -0.68761,0.70662 -1.44468,1.20098 -2.27663,1.48813 -0.81916,0.27591 -1.60455,0.39464 -2.35658,0.34149 -1.02288,-0.0846 -2.44776,-0.39464 -4.27271,-0.91656 l -2.63365,-0.75048 -2.16448,7.5412 -4.04222,-1.15442 z"
   id="path91"
   inkscape:connector-curvature="0"
   style="fill:#ed1c24;fill-rule:evenodd" />
<path
   clip-rule="evenodd"
   d="m 165.04546,340.2378 -1.02404,5.81752 2.2646,0.40045 c 1.6325,0.28443 2.74113,0.37563 3.32746,0.2565 0.58827,-0.11913 1.07565,-0.37834 1.46718,-0.78152 0.39697,-0.40045 0.6457,-0.91073 0.75513,-1.51452 0.13387,-0.74038 0.0218,-1.39773 -0.33294,-1.95728 -0.34846,-0.56305 -0.85253,-0.9635 -1.50367,-1.20137 -0.47689,-0.18161 -1.46368,-0.40008 -2.95492,-0.66317 l -1.9988,-0.35661 z m -7.14267,16.30898 3.61615,-20.50603 6.64366,1.16994 c 2.5145,0.44431 4.14117,0.83779 4.87457,1.17577 1.11212,0.51882 1.98288,1.35698 2.58822,2.53352 0.61466,1.16645 0.77065,2.56417 0.48933,4.19705 -0.22041,1.25414 -0.64415,2.27664 -1.25299,3.05311 -0.60534,0.78151 -1.30537,1.35038 -2.09736,1.7198 -0.78772,0.36321 -1.56031,0.56343 -2.31272,0.58477 -1.02405,0.0193 -2.47221,-0.13155 -4.34607,-0.45944 l -2.69571,-0.47846 -1.36591,7.73561 -4.14117,-0.72564 z"
   id="path93"
   inkscape:connector-curvature="0"
   style="fill:#ed1c24;fill-rule:evenodd" />
<path
   clip-rule="evenodd"
   d="m 191.90837,352.46808 4.03176,1.42915 c -0.70354,2.2456 -1.80556,3.90641 -3.29837,4.95762 -1.48231,1.04149 -3.34645,1.53237 -5.57808,1.45708 -2.76246,-0.0997 -5.00029,-1.11949 -6.71389,-3.05853 -1.71397,-1.95844 -2.518,-4.57655 -2.39615,-7.84464 0.11912,-3.46598 1.10552,-6.11824 2.9557,-7.96997 1.85834,-1.85755 4.24479,-2.73375 7.15976,-2.63635 2.54632,0.0904 4.58509,0.91616 6.1225,2.47376 0.91345,0.92625 1.57933,2.22697 1.9957,3.91028 l -4.1955,0.84438 c -0.20838,-1.09233 -0.68838,-1.95184 -1.45283,-2.60918 -0.75396,-0.65035 -1.68952,-0.99456 -2.81019,-1.03141 -1.53742,-0.0566 -2.81562,0.45595 -3.81444,1.52577 -0.99687,1.07566 -1.53742,2.84667 -1.62357,5.32975 -0.0896,2.62432 0.31742,4.51369 1.22273,5.66772 0.90684,1.15093 2.11404,1.75123 3.62934,1.80168 1.11639,0.0435 2.09153,-0.28405 2.92001,-0.967 0.83041,-0.6779 1.44545,-1.77296 1.84552,-3.28011"
   id="path95"
   inkscape:connector-curvature="0"
   style="fill:#ed1c24;fill-rule:evenodd" />
<path
   clip-rule="evenodd"
   d="m 203.53757,347.80149 3.09074,-0.32594 c 2.00773,-0.21227 3.24985,-0.42801 3.7283,-0.65114 0.48466,-0.21846 0.84787,-0.54985 1.08186,-1.00037 0.24097,-0.4443 0.32169,-0.97592 0.25922,-1.59446 -0.0745,-0.69459 -0.3182,-1.23863 -0.74388,-1.62085 -0.40667,-0.39347 -0.95769,-0.6162 -1.64879,-0.65617 -0.34691,-0.0128 -1.36358,0.0744 -3.05582,0.25028 l -3.26497,0.3438 0.55334,5.25485 z m -2.92699,12.37967 -2.1804,-20.70042 8.80231,-0.91967 c 2.21028,-0.23127 3.84006,-0.21886 4.87884,0.0571 1.04229,0.26192 1.91421,0.82846 2.62083,1.71941 0.69809,0.8952 1.11679,1.94602 1.24794,3.17223 0.16647,1.5479 -0.16259,2.88081 -0.96583,3.9972 -0.81062,1.10088 -2.1055,1.88317 -3.894,2.3364 0.95692,0.43461 1.76055,0.93169 2.40819,1.50444 0.66239,0.56926 1.57312,1.60145 2.74268,3.10899 l 2.9592,3.77253 -5.00767,0.52541 -3.49664,-4.18581 c -1.24174,-1.49434 -2.08029,-2.43612 -2.52149,-2.80243 -0.4412,-0.38726 -0.87891,-0.63095 -1.34456,-0.73107 -0.46023,-0.11601 -1.17033,-0.12262 -2.12686,-0.0198 l -0.85407,0.0885 0.91344,8.64517 -4.18191,0.43187 z"
   id="path97"
   inkscape:connector-curvature="0"
   style="fill:#ed1c24;fill-rule:evenodd" />
<polygon
   clip-rule="evenodd"
   points="602.658,933.668 571.07,886.255 582.482,883.419 605.246,918.659 608.391,876.953 619.538,874.18 613.871,930.879 "
   id="polygon99"
   transform="matrix(0.38804097,0,0,0.38804097,-5.9781695,-5.9172509)"
   style="fill:#ed1c24;fill-rule:evenodd" />
<polygon
   clip-rule="evenodd"
   points="476.222,463.006 470.063,471.139 470.063,485.838 462.471,485.838 462.471,437.196 470.063,437.196 470.063,458.807 485.406,437.196 495.619,437.196 481.453,456.138 496.386,485.838 486.564,485.838 "
   id="polygon101"
   transform="matrix(0.38804097,0,0,0.38804097,-5.9781695,-5.9172509)"
   style="fill-rule:evenodd" />
<path
   clip-rule="evenodd"
   d="m 190.60455,173.15551 c 0,2.13927 0.38261,3.7671 1.14938,4.86836 0.76134,1.09738 1.7295,1.64957 2.90022,1.64957 1.17654,0 2.13965,-0.54636 2.89051,-1.63404 0.76018,-1.09816 1.13503,-2.74462 1.13503,-4.93589 0,-2.161 -0.36865,-3.76942 -1.10359,-4.83887 -0.73572,-1.06285 -1.69846,-1.59562 -2.92195,-1.59562 -1.21302,0 -2.1932,0.5386 -2.93282,1.61774 -0.74969,1.07643 -1.11678,2.6961 -1.11678,4.86875 m -3.03758,0.13116 c 0,-1.92158 0.22429,-3.53505 0.66937,-4.84354 0.33294,-0.95651 0.7819,-1.81874 1.35078,-2.57968 0.58361,-0.76677 1.21067,-1.33293 1.89712,-1.70506 0.9053,-0.49902 1.95689,-0.74891 3.14236,-0.74891 2.14897,0 3.86915,0.86494 5.15434,2.59134 1.30111,1.726 1.94603,4.12835 1.94603,7.19388 0,3.05117 -0.63833,5.43413 -1.92701,7.16091 -1.27938,1.71437 -2.99025,2.57932 -5.13223,2.57932 -2.17109,0 -3.89787,-0.85836 -5.17879,-2.56651 -1.28404,-1.71242 -1.92197,-4.07715 -1.92197,-7.08175"
   id="path103"
   inkscape:connector-curvature="0"
   style="fill-rule:evenodd" />
<path
   clip-rule="evenodd"
   d="m 204.49797,178.99359 h 2.79661 v 3.61538 h -2.79661 v -3.61538 z m 0.60689,-1.2526 -0.73184,-9.57763 v -4.42832 h 3.0306 v 4.42832 l -0.71904,9.57763 h -1.57972 z"
   id="path105"
   inkscape:connector-curvature="0"
   style="fill-rule:evenodd" />
<rect
   x="102.54717"
   y="137.36687"
   clip-rule="evenodd"
   width="2.9463949"
   height="18.87509"
   id="rect107"
   style="fill-rule:evenodd" />
<path
   clip-rule="evenodd"
   d="m 111.24902,140.56201 v 5.35535 h 1.61037 c 1.16722,0 1.93904,-0.0986 2.32863,-0.29762 0.39153,-0.19519 0.70273,-0.50989 0.92004,-0.92588 0.22623,-0.41869 0.33953,-0.91034 0.33953,-1.46679 0,-0.68489 -0.15676,-1.25608 -0.47107,-1.70156 -0.31122,-0.44119 -0.70391,-0.72214 -1.18547,-0.83545 -0.35195,-0.0823 -1.05897,-0.12805 -2.1187,-0.12805 h -1.42333 z m -2.94951,15.6784 v -18.87508 h 4.7341 c 1.78732,0 2.95493,0.097 3.5009,0.28211 0.83818,0.28869 1.54014,0.90956 2.10319,1.85755 0.56032,0.94526 0.84283,2.17302 0.84631,3.66737 0,1.16218 -0.16763,2.13927 -0.49125,2.92777 -0.32673,0.7885 -0.74,1.40626 -1.24523,1.86415 -0.49708,0.44547 -0.99881,0.7431 -1.51841,0.88668 -0.70816,0.18315 -1.72328,0.2689 -3.05853,0.2689 h -1.92157 v 7.12094 h -2.94951 z"
   id="path109"
   inkscape:connector-curvature="0"
   style="fill-rule:evenodd" />
<path
   clip-rule="evenodd"
   d="m 129.63828,148.77722 -2.01278,-7.00763 -1.97201,7.00763 h 3.98479 z m 5.42558,7.46319 h -3.20639 l -1.27121,-4.28474 h -5.83924 l -1.201,4.28474 h -3.12605 l 5.68596,-18.87508 h 3.1152 l 5.84273,18.87508 z"
   id="path111"
   inkscape:connector-curvature="0"
   style="fill-rule:evenodd" />
<path
   clip-rule="evenodd"
   d="m 143.42188,149.30302 v -3.17766 h 6.34718 v 7.51751 c -0.61776,0.77221 -1.5122,1.45477 -2.6868,2.04692 -1.16644,0.58206 -2.35036,0.87775 -3.55406,0.87775 -1.52539,0 -2.85753,-0.41327 -3.99411,-1.23979 -1.13424,-0.83236 -1.98677,-2.01472 -2.55758,-3.55523 -0.56575,-1.54363 -0.85369,-3.21842 -0.85369,-5.02825 0,-1.97085 0.31315,-3.71588 0.95381,-5.24359 0.63678,-1.5246 1.57234,-2.69922 2.79932,-3.5141 0.93558,-0.62707 2.10048,-0.93789 3.49431,-0.93789 1.80905,0 3.22618,0.49436 4.2378,1.48425 1.02404,0.97244 1.68449,2.33019 1.97513,4.06318 l -2.92777,0.70817 c -0.20761,-0.92548 -0.59448,-1.65926 -1.16489,-2.19049 -0.56306,-0.5386 -1.27472,-0.8079 -2.12027,-0.8079 -1.29023,0 -2.31155,0.5258 -3.07755,1.57972 -0.75862,1.0574 -1.13424,2.62549 -1.13424,4.70072 0,2.24288 0.38494,3.92426 1.15287,5.04531 0.77297,1.11796 1.778,1.67479 3.03099,1.67479 0.61814,0 1.2297,-0.14979 1.85173,-0.46448 0.62087,-0.31704 1.15558,-0.69693 1.60416,-1.14279 v -2.39615 h -3.37634 z"
   id="path113"
   inkscape:connector-curvature="0"
   style="fill-rule:evenodd" />
<polygon
   clip-rule="evenodd"
   points="435.586,377.484 424.433,377.484 424.433,417.888 416.848,417.888 416.848,377.484 405.681,377.484 405.681,369.246 435.586,369.246 "
   id="polygon115"
   transform="matrix(0.38804097,0,0,0.38804097,-5.9781695,-5.9172509)"
   style="fill-rule:evenodd" />
<path
   clip-rule="evenodd"
   d="m 172.68638,148.77722 -2.01393,-7.00763 -1.97319,7.00763 h 3.98712 z m 5.42248,7.46319 h -3.20289 l -1.27472,-4.28474 h -5.83807 l -1.20099,4.28474 h -3.12645 l 5.67859,-18.87508 h 3.12102 l 5.84351,18.87508 z"
   id="path117"
   inkscape:connector-curvature="0"
   style="fill-rule:evenodd" />
<polygon
   clip-rule="evenodd"
   points="505.638,377.484 494.487,377.484 494.487,417.888 486.894,417.888 486.894,377.484 475.726,377.484 475.726,369.246 505.638,369.246 "
   id="polygon119"
   transform="matrix(0.38804097,0,0,0.38804097,-5.9781695,-5.9172509)"
   style="fill-rule:evenodd" />
<path
   clip-rule="evenodd"
   d="m 199.86243,148.77722 -2.00772,-7.00763 -1.97707,7.00763 h 3.98479 z m 5.42675,7.46319 h -3.20288 l -1.27317,-4.28474 h -5.84273 l -1.19983,4.28474 h -3.12411 l 5.68402,-18.87508 h 3.11248 l 5.84622,18.87508 z"
   id="path121"
   inkscape:connector-curvature="0"
   style="fill-rule:evenodd" />
<polygon
   clip-rule="evenodd"
   points="548.549,369.246 555.948,369.246 571.344,401.734 571.344,369.246 578.398,369.246 578.398,417.888 570.764,417.888 555.61,386.173 555.61,417.888 548.549,417.888 "
   id="polygon123"
   transform="matrix(0.38804097,0,0,0.38804097,-5.9781695,-5.9172509)"
   style="fill-rule:evenodd" />
<path
   clip-rule="evenodd"
   d="m 228.37219,149.30302 v -3.17766 h 6.34641 v 7.51751 c -0.61,0.77221 -1.51064,1.45477 -2.68291,2.04692 -1.16994,0.58206 -2.3558,0.87775 -3.55718,0.87775 -1.52267,0 -2.8556,-0.41327 -3.9906,-1.23979 -1.13541,-0.83236 -1.98872,-2.01472 -2.56146,-3.55523 -0.56965,-1.54363 -0.85137,-3.21842 -0.85137,-5.02825 0,-1.97085 0.31354,-3.71588 0.95769,-5.24359 0.63522,-1.5246 1.56652,-2.69922 2.79583,-3.5141 0.93867,-0.62707 2.09892,-0.93789 3.49043,-0.93789 1.81099,0 3.22501,0.49436 4.2471,1.48425 1.01746,0.97244 1.67363,2.33019 1.96467,4.06318 l -2.92467,0.70817 c -0.20955,-0.92548 -0.59371,-1.65926 -1.16646,-2.19049 -0.56653,-0.5386 -1.26694,-0.8079 -2.12102,-0.8079 -1.28559,0 -2.30807,0.5258 -3.07794,1.57972 -0.7532,1.0574 -1.13581,2.62549 -1.13581,4.70072 0,2.24288 0.38843,3.92426 1.1552,5.04531 0.77569,1.11796 1.78266,1.67479 3.03371,1.67479 0.61271,0 1.22543,-0.14979 1.84824,-0.46448 0.62551,-0.31704 1.16063,-0.69693 1.60145,-1.14279 v -2.39615 h -3.37131 z"
   id="path125"
   inkscape:connector-curvature="0"
   style="fill-rule:evenodd" />
<path
   clip-rule="evenodd"
   d="m 244.23026,149.30302 v -3.17766 h 6.35262 v 7.51751 c -0.61621,0.77221 -1.51375,1.45477 -2.68369,2.04692 -1.17576,0.58206 -2.35502,0.87775 -3.55601,0.87775 -1.52888,0 -2.8552,-0.41327 -3.991,-1.23979 -1.13542,-0.83236 -1.9957,-2.01472 -2.56805,-3.55523 -0.56306,-1.54363 -0.85059,-3.21842 -0.85059,-5.02825 0,-1.97085 0.32168,-3.71588 0.95729,-5.24359 0.63834,-1.5246 1.56652,-2.69922 2.79624,-3.5141 0.93827,-0.62707 2.10201,-0.93789 3.49042,-0.93789 1.81719,0 3.2316,0.49436 4.24711,1.48425 1.02365,0.97244 1.68022,2.33019 1.97047,4.06318 l -2.93049,0.70817 c -0.20993,-0.92548 -0.59098,-1.65926 -1.16024,-2.19049 -0.56305,-0.5386 -1.27316,-0.8079 -2.12685,-0.8079 -1.28558,0 -2.30845,0.5258 -3.07173,1.57972 -0.75319,1.0574 -1.13503,2.62549 -1.13503,4.70072 0,2.24288 0.38844,3.92426 1.15753,5.04531 0.766,1.11796 1.77917,1.67479 3.0244,1.67479 0.61892,0 1.23241,-0.14979 1.85134,-0.46448 0.62241,-0.31704 1.16024,-0.69693 1.60183,-1.14279 v -2.39615 h -3.37557 z"
   id="path127"
   inkscape:connector-curvature="0"
   style="fill-rule:evenodd" />
<path
   clip-rule="evenodd"
   d="m 255.74072,146.79434 c 0,2.13926 0.38455,3.75313 1.14782,4.86564 0.76056,1.09428 1.73261,1.64646 2.90566,1.64646 1.17614,0 2.13965,-0.54403 2.88974,-1.63404 0.76094,-1.09777 1.13579,-2.7388 1.13579,-4.92968 0,-2.16099 -0.36863,-3.77486 -1.10746,-4.83808 -0.73146,-1.06363 -1.70427,-1.59564 -2.91807,-1.59564 -1.21651,0 -2.19903,0.53783 -2.9336,1.61737 -0.74775,1.07526 -1.11988,2.69726 -1.11988,4.86797 m -3.03409,0.12534 c 0,-1.92236 0.21614,-3.53661 0.66705,-4.84393 0.33137,-0.95652 0.78462,-1.81874 1.35387,-2.58046 0.57857,-0.76599 1.20719,-1.32594 1.89208,-1.70428 0.91074,-0.49243 1.95845,-0.7431 3.14391,-0.7431 2.1517,0 3.87227,0.86184 5.15784,2.59134 1.29489,1.72677 1.94525,4.12216 1.94525,7.1935 0,3.04496 -0.64415,5.42908 -1.92701,7.15548 -1.27937,1.71979 -2.99335,2.57853 -5.13572,2.57853 -2.17071,0 -3.89671,-0.85874 -5.17336,-2.56611 -1.28598,-1.71204 -1.92391,-4.07405 -1.92391,-7.08097"
   id="path129"
   inkscape:connector-curvature="0"
   style="fill-rule:evenodd" />
<polygon
   clip-rule="evenodd"
   points="716.859,409.699 735.737,409.699 735.737,417.888 709.268,417.888 709.268,369.65 716.859,369.65 "
   id="polygon131"
   transform="matrix(0.38804097,0,0,0.38804097,-5.9781695,-5.9172509)"
   style="fill-rule:evenodd" />
<path
   clip-rule="evenodd"
   d="m 133.32815,114.19617 v 12.49726 h 2.19709 c 0.8273,0 1.42101,-0.0543 1.78732,-0.17772 0.47418,-0.15212 0.87115,-0.41482 1.17926,-0.78269 0.32207,-0.37174 0.58167,-0.97708 0.78035,-1.81719 0.20177,-0.84788 0.29917,-2.0019 0.29917,-3.46366 0,-1.45786 -0.0974,-2.57582 -0.29917,-3.36082 -0.19868,-0.77453 -0.48001,-1.38569 -0.83468,-1.82495 -0.3601,-0.44004 -0.81372,-0.7369 -1.3659,-0.88745 -0.40977,-0.11913 -1.21651,-0.18316 -2.42061,-0.18316 h -1.32283 z m -2.94988,-3.19007 h 5.39416 c 1.21301,0 2.13578,0.11874 2.76905,0.35466 0.85602,0.33372 1.59253,0.91035 2.20059,1.73882 0.61155,0.8335 1.07564,1.85211 1.39655,3.06552 0.31704,1.20137 0.47963,2.68524 0.47963,4.45588 0,1.54983 -0.15327,2.88818 -0.44975,4.01582 -0.36669,1.37795 -0.88861,2.49008 -1.56418,3.33445 -0.51106,0.64414 -1.201,1.14317 -2.06943,1.50947 -0.65347,0.26193 -1.5215,0.40046 -2.60958,0.40046 h -5.54744 V 111.0061 z"
   id="path133"
   inkscape:connector-curvature="0"
   style="fill-rule:evenodd" />
<path
   clip-rule="evenodd"
   d="m 152.85592,122.41062 -2.01393,-7.0022 -1.97319,7.0022 h 3.98712 z m 5.42288,7.46862 h -3.20638 l -1.27123,-4.29135 h -5.83768 l -1.20137,4.29135 h -3.12646 l 5.68131,-18.87509 h 3.12062 l 5.84119,18.87509 z"
   id="path135"
   inkscape:connector-curvature="0"
   style="fill-rule:evenodd" />
<polygon
   clip-rule="evenodd"
   points="427.407,301.312 434.794,301.312 450.195,333.802 450.195,301.312 457.248,301.312 457.248,349.954 449.627,349.954 434.464,318.223 434.464,349.954 427.407,349.954 "
   id="polygon137"
   transform="matrix(0.38804097,0,0,0.38804097,-5.9781695,-5.9172509)"
   style="fill-rule:evenodd" />
<path
   clip-rule="evenodd"
   d="m 181.35792,122.93563 v -3.17766 h 6.35417 v 7.5179 c -0.61776,0.7788 -1.51064,1.46059 -2.68989,2.05352 -1.16685,0.57663 -2.35386,0.87076 -3.55485,0.87076 -1.52423,0 -2.85676,-0.41249 -3.99061,-1.23359 -1.13735,-0.83234 -1.98949,-2.02091 -2.5603,-3.55484 -0.56653,-1.54362 -0.85369,-3.225 -0.85369,-5.03405 0,-1.96465 0.31587,-3.70967 0.95692,-5.23739 0.63794,-1.53121 1.56846,-2.69998 2.79622,-3.51294 0.93829,-0.63523 2.10047,-0.94643 3.4912,-0.94643 1.81875,0 3.23238,0.49436 4.2471,1.48465 1.01823,0.97825 1.67518,2.3298 1.96931,4.06279 l -2.92776,0.70817 c -0.20799,-0.92547 -0.59448,-1.65228 -1.16839,-2.18428 -0.55645,-0.54481 -1.26852,-0.81294 -2.12026,-0.81294 -1.28752,0 -2.31194,0.52501 -3.07484,1.58514 -0.75512,1.05742 -1.13114,2.62005 -1.13114,4.6953 0,2.24831 0.38184,3.93008 1.15016,5.05074 0.77569,1.1129 1.78383,1.66896 3.03059,1.66896 0.61427,0 1.23515,-0.15599 1.85174,-0.46448 0.62047,-0.31121 1.15559,-0.6977 1.60688,-1.14317 v -2.39576 h -3.38256 z"
   id="path139"
   inkscape:connector-curvature="0"
   style="fill-rule:evenodd" />
<path
   clip-rule="evenodd"
   d="m 198.16709,122.41062 -2.00772,-7.0022 -1.97514,7.0022 h 3.98286 z m 5.42325,7.46862 h -3.2056 l -1.27316,-4.29135 h -5.83459 l -1.2072,4.29135 h -3.12295 l 5.68325,-18.87509 h 3.12141 l 5.83884,18.87509 z"
   id="path141"
   inkscape:connector-curvature="0"
   style="fill-rule:evenodd" />
<polygon
   clip-rule="evenodd"
   points="551.895,341.749 570.788,341.749 570.788,349.954 544.301,349.954 544.301,301.7 551.895,301.7 "
   id="polygon143"
   transform="matrix(0.38804097,0,0,0.38804097,-5.9781695,-5.9172509)"
   style="fill-rule:evenodd" />
<polygon
   clip-rule="evenodd"
   points="604.658,327.123 598.5,335.254 598.5,349.954 590.907,349.954 590.907,301.312 598.5,301.312 598.5,322.906 613.839,301.312 624.061,301.312 609.889,320.255 624.834,349.954 615.008,349.954 "
   id="polygon145"
   transform="matrix(0.38804097,0,0,0.38804097,-5.9781695,-5.9172509)"
   style="fill-rule:evenodd" />
<path
   clip-rule="evenodd"
   d="m 240.4457,120.42696 c 0,2.13926 0.37873,3.76011 1.14822,4.86835 0.75978,1.09156 1.72677,1.64374 2.90603,1.64374 1.16995,0 2.13228,-0.54557 2.88005,-1.63442 0.76326,-1.09117 1.1354,-2.73841 1.1354,-4.92929 0,-2.161 -0.36592,-3.77525 -1.10397,-4.83848 -0.73263,-1.06362 -1.69846,-1.59562 -2.91148,-1.59562 -1.21767,0 -2.19942,0.54402 -2.94019,1.61734 -0.74814,1.07566 -1.11406,2.69651 -1.11406,4.86838 m -3.03991,0.13154 c 0,-1.92236 0.22157,-3.53932 0.66936,-4.84391 0.3345,-0.95653 0.78153,-1.82496 1.35078,-2.5863 0.57856,-0.76637 1.20758,-1.32594 1.89907,-1.69847 0.90336,-0.4924 1.95146,-0.74929 3.14391,-0.74929 2.14858,0 3.86528,0.86493 5.15124,2.59172 1.298,1.72678 1.94564,4.12294 1.94564,7.1935 0,3.04496 -0.63793,5.43491 -1.9208,7.15471 -1.28248,1.72096 -2.99335,2.5793 -5.13844,2.5793 -2.1711,0 -3.89399,-0.85252 -5.17065,-2.56029 -1.28636,-1.71981 -1.93011,-4.07715 -1.93011,-7.08097"
   id="path147"
   inkscape:connector-curvature="0"
   style="fill-rule:evenodd" />
<path
   clip-rule="evenodd"
   d="m 144.67254,95.28578 v 5.04647 h 2.72559 c 1.06711,0 1.73881,-0.0346 2.02713,-0.11913 0.43655,-0.0982 0.7885,-0.34846 1.06362,-0.74309 0.27706,-0.4063 0.41443,-0.93829 0.41443,-1.61387 0,-0.56305 -0.10322,-1.04306 -0.31432,-1.4373 -0.21458,-0.39426 -0.51881,-0.68373 -0.92276,-0.86495 -0.40008,-0.17384 -1.27122,-0.2689 -2.61307,-0.2689 h -2.38062 z m 0,-7.508209 v 4.369337 h 1.93166 c 1.1521,0 1.86065,-0.0268 2.13927,-0.07177 0.50678,-0.07334 0.89755,-0.294127 1.18547,-0.661607 0.29336,-0.381452 0.43887,-0.868047 0.43887,-1.484255 0,-0.578956 -0.12533,-1.05703 -0.37874,-1.412472 -0.24097,-0.36747 -0.61154,-0.595648 -1.10862,-0.669364 -0.28444,-0.04536 -1.12454,-0.0702 -2.51295,-0.0702 h -1.69496 z m -2.9464,-3.138857 h 5.83691 c 1.15209,0 2.01393,0.06402 2.57736,0.195562 0.57043,0.119135 1.07565,0.375246 1.52812,0.769107 0.44585,0.393087 0.82264,0.923924 1.12142,1.587082 0.29686,0.651131 0.45208,1.384147 0.45208,2.200579 0,0.885121 -0.19285,1.691863 -0.56188,2.428747 -0.36166,0.746202 -0.86495,1.293337 -1.49513,1.665471 0.88668,0.336434 1.57196,0.905308 2.05701,1.706218 0.47341,0.81372 0.71284,1.75938 0.71284,2.85405 0,0.84902 -0.15328,1.6934 -0.4676,2.50247 -0.30655,0.81295 -0.7299,1.46213 -1.27122,1.94991 -0.5258,0.4769 -1.1812,0.77414 -1.96582,0.88396 -0.49165,0.0733 -1.67245,0.11253 -3.55716,0.13077 h -4.96655 V 84.638714 z"
   id="path149"
   inkscape:connector-curvature="0"
   style="fill-rule:evenodd" />
<path
   clip-rule="evenodd"
   d="m 158.8822,94.06577 c 0,2.13307 0.37718,3.75352 1.14318,4.86216 0.76793,1.09776 1.73647,1.65034 2.90758,1.65034 1.17577,0 2.13927,-0.54443 2.89052,-1.64103 0.75862,-1.09156 1.13696,-2.73879 1.13696,-4.92967 0,-2.15479 -0.3698,-3.774871 -1.10553,-4.832274 -0.73417,-1.069833 -1.70506,-1.601445 -2.92156,-1.601445 -1.21068,0 -2.19127,0.544032 -2.93669,1.623566 -0.74427,1.076421 -1.11446,2.689894 -1.11446,4.868353 m -3.0372,0.12496 c 0,-1.921977 0.2208,-3.535833 0.66589,-4.842759 0.33643,-0.957295 0.785,-1.819137 1.35465,-2.580469 0.58012,-0.772594 1.20719,-1.332532 1.89402,-1.705059 0.9084,-0.498623 1.95651,-0.743099 3.14508,-0.743099 2.14897,0 3.87226,0.85874 5.15551,2.591348 1.29839,1.720954 1.94136,4.122927 1.94136,7.194268 0,3.04497 -0.63677,5.42792 -1.91964,7.15471 -1.28014,1.71397 -2.98985,2.57853 -5.13726,2.57853 -2.17071,0 -3.89672,-0.85873 -5.17491,-2.5665 -1.28365,-1.71204 -1.9247,-4.07637 -1.9247,-7.08097"
   id="path151"
   inkscape:connector-curvature="0"
   style="fill-rule:evenodd" />
<polygon
   clip-rule="evenodd"
   points="486.64,241.6 475.496,241.6 475.496,282.003 467.904,282.003 467.904,241.6 456.744,241.6 456.744,233.363 486.64,233.363 "
   id="polygon153"
   transform="matrix(0.38804097,0,0,0.38804097,-5.9781695,-5.9172509)"
   style="fill-rule:evenodd" />
<path
   clip-rule="evenodd"
   d="m 187.19833,94.06577 c 0,2.13307 0.37989,3.75352 1.14937,4.86216 0.75863,1.09776 1.72989,1.65034 2.90371,1.65034 1.17306,0 2.13928,-0.54443 2.88316,-1.64103 0.76715,-1.09156 1.14239,-2.73879 1.14239,-4.92967 0,-2.15479 -0.37562,-3.774871 -1.1098,-4.832274 -0.72758,-1.069833 -1.69884,-1.601445 -2.91575,-1.601445 -1.2134,0 -2.19747,0.544032 -2.93669,1.623566 -0.7462,1.076421 -1.11639,2.689894 -1.11639,4.868353 m -3.03759,0.12496 c 0,-1.921977 0.22391,-3.535833 0.67015,-4.842759 0.33295,-0.957295 0.78152,-1.819137 1.35349,-2.580469 0.57741,-0.772594 1.20797,-1.332532 1.8917,-1.705059 0.90491,-0.498623 1.95611,-0.743099 3.1474,-0.743099 2.14897,0 3.86605,0.85874 5.15513,2.591348 1.29489,1.720954 1.94214,4.122927 1.94214,7.194268 0,3.04497 -0.64105,5.42792 -1.92352,7.15471 -1.27938,1.71397 -2.9887,2.57853 -5.13573,2.57853 -2.1672,0 -3.89748,-0.85873 -5.17491,-2.5665 -1.28441,-1.71204 -1.92585,-4.07637 -1.92585,-7.08097"
   id="path155"
   inkscape:connector-curvature="0"
   style="fill-rule:evenodd" />
<polygon
   clip-rule="evenodd"
   points="560.874,259.173 554.715,267.303 554.715,282.003 547.122,282.003 547.122,233.363 554.715,233.363 554.715,254.973 570.054,233.363 580.275,233.363 566.104,252.305 581.033,282.003 571.207,282.003 "
   id="polygon157"
   transform="matrix(0.38804097,0,0,0.38804097,-5.9781695,-5.9172509)"
   style="fill-rule:evenodd" />
<path
   clip-rule="evenodd"
   d="m 223.45222,94.06577 c 0,2.13307 0.38184,3.75352 1.14511,4.86216 0.75978,1.09776 1.7295,1.65034 2.90526,1.65034 1.17576,0 2.14043,-0.54443 2.88703,-1.64103 0.76288,-1.09156 1.13929,-2.73879 1.13929,-4.92967 0,-2.15479 -0.37019,-3.774871 -1.10475,-4.832274 -0.73534,-1.069833 -1.70739,-1.601445 -2.92157,-1.601445 -1.21689,0 -2.19864,0.544032 -2.93437,1.623566 -0.74698,1.076421 -1.116,2.689894 -1.116,4.868353 m -3.03681,0.12496 c 0,-1.921977 0.22157,-3.535833 0.66937,-4.842759 0.32906,-0.957295 0.7823,-1.819137 1.35116,-2.580469 0.57818,-0.772594 1.20991,-1.332532 1.89286,-1.705059 0.90996,-0.498623 1.95728,-0.743099 3.14896,-0.743099 2.14858,0 3.86567,0.85874 5.15124,2.591348 1.29878,1.720954 1.94603,4.122927 1.94603,7.194268 0,3.04497 -0.64105,5.42792 -1.92662,7.15471 -1.27977,1.71397 -2.98714,2.57853 -5.13302,2.57853 -2.1707,0 -3.89748,-0.85873 -5.17684,-2.5665 -1.28869,-1.71204 -1.92314,-4.07637 -1.92314,-7.08097"
   id="path159"
   inkscape:connector-curvature="0"
   style="fill-rule:evenodd" />
<path
   clip-rule="evenodd"
   d="m 236.78686,99.89608 h 2.79506 v 2.58514 c 0,1.04926 -0.0652,1.87657 -0.20953,2.47492 -0.13738,0.60884 -0.40008,1.15015 -0.79356,1.63288 -0.38842,0.48079 -0.8793,0.85602 -1.4765,1.13114 l -0.5448,-1.49201 c 0.56304,-0.24097 0.9635,-0.57043 1.20719,-0.9899 0.23477,-0.42569 0.36049,-0.9961 0.37524,-1.72678 h -1.3531 v -3.61539 z"
   id="path161"
   inkscape:connector-curvature="0"
   style="fill-rule:evenodd" />
<path
   d="m 120.82042,333.48201 c 0,-1.92972 1.56459,-3.49081 3.49276,-3.49081 1.92856,0 3.49587,1.56109 3.49587,3.49081 0,1.92701 -1.56731,3.49042 -3.49587,3.49042 -1.92817,3.9e-4 -3.49276,-1.56341 -3.49276,-3.49042"
   id="path163"
   inkscape:connector-curvature="0" />
<path
   d="m 245.75993,337.41713 c 0,-1.93089 1.5638,-3.49082 3.49391,-3.49082 1.92352,0 3.49354,1.56033 3.49354,3.49082 0,1.93283 -1.57002,3.49625 -3.49354,3.49625 -1.93011,0 -3.49391,-1.56303 -3.49391,-3.49625"
   id="path165"
   inkscape:connector-curvature="0" />
</svg>