<svg width="40" height="80" viewBox="0 0 40 80" fill="none" xmlns="http://www.w3.org/2000/svg">
<path d="M17.5 70C17.5 71.3807 18.6193 72.5 20 72.5C21.3807 72.5 22.5 71.3807 22.5 70H17.5ZM21.7678 8.23223C20.7915 7.25592 19.2085 7.25592 18.2322 8.23223L2.32233 24.1421C1.34602 25.1184 1.34602 26.7014 2.32233 27.6777C3.29864 28.654 4.88155 28.654 5.85786 27.6777L20 13.5355L34.1421 27.6777C35.1184 28.654 36.7014 28.654 37.6777 27.6777C38.654 26.7014 38.654 25.1184 37.6777 24.1421L21.7678 8.23223ZM22.5 70L22.5 10H17.5L17.5 70H22.5Z" fill="black"/>
</svg>
